# Blender v2.78 (sub 0) OBJ File: 'arrow.blend'
# www.blender.org
mtllib arrow_base.mtl
o arrow_base_Circle.002
v 0.000000 1.000000 -0.100000
v 0.019509 1.000000 -0.098078
v 0.038268 1.000000 -0.092388
v 0.055557 1.000000 -0.083147
v 0.070711 1.000000 -0.070710
v 0.083147 1.000000 -0.055557
v 0.092388 1.000000 -0.038268
v 0.098079 1.000000 -0.019509
v 0.100000 1.000000 0.000000
v 0.098079 1.000000 0.019509
v 0.092388 1.000000 0.038268
v 0.083147 1.000000 0.055557
v 0.070711 1.000000 0.070711
v 0.055557 1.000000 0.083147
v 0.038268 1.000000 0.092388
v 0.019509 1.000000 0.098079
v 0.000000 1.000000 0.100000
v -0.019509 1.000000 0.098079
v -0.038268 1.000000 0.092388
v -0.055557 1.000000 0.083147
v -0.070711 1.000000 0.070711
v -0.083147 1.000000 0.055557
v -0.092388 1.000000 0.038268
v -0.098078 1.000000 0.019509
v -0.100000 1.000000 0.000000
v -0.098078 1.000000 -0.019509
v -0.092388 1.000000 -0.038268
v -0.083147 1.000000 -0.055557
v -0.070711 1.000000 -0.070711
v -0.055557 1.000000 -0.083147
v -0.038268 1.000000 -0.092388
v -0.019509 1.000000 -0.098078
v 0.083147 0.991525 0.055557
v 0.092388 0.991525 0.038268
v -0.098078 0.991525 -0.019509
v -0.100000 0.991525 0.000000
v 0.070711 0.991525 0.070711
v -0.092388 0.991525 -0.038268
v 0.055557 0.991525 0.083147
v -0.083147 0.991525 -0.055557
v 0.038268 0.991525 0.092388
v 0.019509 0.991525 -0.098078
v 0.000000 0.991525 -0.100000
v -0.070711 0.991525 -0.070711
v 0.019509 0.991525 0.098079
v 0.038268 0.991525 -0.092388
v -0.055557 0.991525 -0.083147
v 0.000000 0.991525 0.100000
v 0.055557 0.991525 -0.083147
v -0.038268 0.991525 -0.092388
v -0.019509 0.991525 0.098079
v 0.070711 0.991525 -0.070710
v -0.019509 0.991525 -0.098078
v -0.038268 0.991525 0.092388
v 0.083147 0.991525 -0.055557
v -0.055557 0.991525 0.083147
v 0.092388 0.991525 -0.038268
v -0.070711 0.991525 0.070711
v 0.098079 0.991525 -0.019509
v -0.083147 0.991525 0.055557
v 0.100000 0.991525 0.000000
v -0.092388 0.991525 0.038268
v 0.098079 0.991525 0.019509
v -0.098078 0.991525 0.019509
v 0.083147 0.009084 0.055557
v -0.098078 0.009084 -0.019509
v 0.070711 0.009084 0.070711
v -0.092388 0.009084 -0.038268
v 0.055557 0.009084 0.083147
v -0.083147 0.009084 -0.055557
v 0.038268 0.009084 0.092388
v 0.019509 0.009084 -0.098078
v -0.070711 0.009084 -0.070711
v 0.019509 0.009084 0.098079
v 0.038268 0.009084 -0.092388
v -0.055557 0.009084 -0.083147
v 0.000000 0.009084 0.100000
v 0.055557 0.009084 -0.083147
v -0.038268 0.009084 -0.092388
v -0.019509 0.009084 0.098079
v 0.070711 0.009084 -0.070711
v -0.019509 0.009084 -0.098078
v -0.038268 0.009084 0.092388
v 0.083147 0.009084 -0.055557
v -0.055557 0.009084 0.083147
v 0.092388 0.009084 -0.038268
v -0.070711 0.009084 0.070711
v 0.098079 0.009084 -0.019509
v -0.083147 0.009084 0.055557
v 0.100000 0.009084 0.000000
v -0.092388 0.009084 0.038268
v 0.098079 0.009084 0.019509
v -0.098079 0.009084 0.019509
v 0.092388 0.009084 0.038268
v -0.100000 0.009084 -0.000000
v 0.000000 0.009084 -0.100000
v 0.019509 0.000000 -0.098078
v 0.000000 0.000000 -0.100000
v 0.038268 0.000000 -0.092388
v 0.055557 0.000000 -0.083147
v 0.070711 0.000000 -0.070711
v 0.083147 0.000000 -0.055557
v 0.092388 0.000000 -0.038268
v 0.098079 0.000000 -0.019509
v 0.100000 0.000000 0.000000
v 0.098079 0.000000 0.019509
v 0.092388 -0.000000 0.038268
v 0.083147 -0.000000 0.055557
v 0.070711 -0.000000 0.070711
v 0.055557 -0.000000 0.083147
v 0.038268 -0.000000 0.092388
v 0.019509 -0.000000 0.098079
v 0.000000 -0.000000 0.100000
v -0.019509 -0.000000 0.098079
v -0.038268 -0.000000 0.092388
v -0.055557 -0.000000 0.083147
v -0.070711 0.000000 0.070711
v -0.083147 0.000000 0.055557
v -0.092388 0.000000 0.038268
v -0.098079 0.000000 0.019509
v -0.100000 0.000000 -0.000000
v -0.098078 0.000000 -0.019509
v -0.092388 0.000000 -0.038268
v -0.083147 0.000000 -0.055557
v -0.070711 0.000000 -0.070711
v -0.055557 0.000000 -0.083147
v -0.038268 0.000000 -0.092388
v -0.019509 0.000000 -0.098078
vn 0.0000 1.0000 0.0000
vn 0.9239 0.0000 0.3827
vn 0.8314 0.0000 0.5556
vn -1.0000 0.0000 0.0000
vn -0.9808 0.0000 -0.1951
vn 0.7071 0.0000 0.7071
vn -0.9239 0.0000 -0.3827
vn 0.5556 0.0000 0.8314
vn -0.8314 0.0000 -0.5556
vn 0.3827 0.0000 0.9239
vn 0.0000 0.0000 -1.0000
vn 0.1951 0.0000 -0.9808
vn -0.7071 0.0000 -0.7071
vn 0.1951 0.0000 0.9808
vn 0.3827 0.0000 -0.9239
vn -0.5556 0.0000 -0.8314
vn 0.0000 0.0000 1.0000
vn 0.5556 0.0000 -0.8314
vn -0.3827 0.0000 -0.9239
vn -0.1951 0.0000 0.9808
vn 0.7071 0.0000 -0.7071
vn -0.1951 0.0000 -0.9808
vn -0.3827 0.0000 0.9239
vn 0.8314 0.0000 -0.5556
vn -0.5556 0.0000 0.8314
vn 0.9239 0.0000 -0.3827
vn -0.7071 0.0000 0.7071
vn 0.9808 0.0000 -0.1951
vn -0.8314 0.0000 0.5556
vn 1.0000 0.0000 0.0000
vn -0.9239 0.0000 0.3827
vn 0.9808 0.0000 0.1951
vn -0.9808 0.0000 0.1951
vn -0.7139 0.6857 0.1420
vn -0.7279 0.6857 0.0000
vn 0.7139 0.6857 0.1420
vn 0.6725 0.6857 0.2785
vn -0.6725 0.6857 0.2785
vn 0.7279 0.6857 0.0000
vn -0.6052 0.6857 0.4044
vn 0.7139 0.6857 -0.1420
vn -0.5147 0.6857 0.5147
vn 0.6725 0.6857 -0.2785
vn -0.4044 0.6857 0.6052
vn 0.6052 0.6857 -0.4044
vn -0.2785 0.6857 0.6725
vn -0.1420 0.6857 -0.7139
vn 0.0000 0.6857 -0.7279
vn 0.5147 0.6857 -0.5147
vn -0.1420 0.6857 0.7139
vn -0.2785 0.6857 -0.6725
vn 0.4044 0.6857 -0.6052
vn 0.0000 0.6857 0.7279
vn -0.4044 0.6857 -0.6052
vn 0.2785 0.6857 -0.6725
vn 0.1420 0.6857 0.7139
vn -0.5147 0.6857 -0.5147
vn 0.1420 0.6857 -0.7139
vn 0.2785 0.6857 0.6725
vn -0.6052 0.6857 -0.4044
vn 0.4044 0.6857 0.6052
vn -0.6725 0.6857 -0.2785
vn 0.5147 0.6857 0.5147
vn -0.7139 0.6857 -0.1420
vn 0.6052 0.6857 0.4044
usemtl None
s off
f 2//1 1//1 32//1 31//1 30//1 29//1 28//1 27//1 26//1 25//1 24//1 23//1 22//1 21//1 20//1 19//1 18//1 17//1 16//1 15//1 14//1 13//1 12//1 11//1 10//1 9//1 8//1 7//1 6//1 5//1 4//1 3//1
s 1
f 94//2 65//3 108//3 107//2
f 95//4 66//5 122//5 121//4
f 65//3 67//6 109//6 108//3
f 66//5 68//7 123//7 122//5
f 67//6 69//8 110//8 109//6
f 68//7 70//9 124//9 123//7
f 69//8 71//10 111//10 110//8
f 96//11 72//12 97//12 98//11
f 70//9 73//13 125//13 124//9
f 71//10 74//14 112//14 111//10
f 72//12 75//15 99//15 97//12
f 73//13 76//16 126//16 125//13
f 74//14 77//17 113//17 112//14
f 75//15 78//18 100//18 99//15
f 76//16 79//19 127//19 126//16
f 77//17 80//20 114//20 113//17
f 78//18 81//21 101//21 100//18
f 79//19 82//22 128//22 127//19
f 80//20 83//23 115//23 114//20
f 81//21 84//24 102//24 101//21
f 82//22 96//11 98//11 128//22
f 83//23 85//25 116//25 115//23
f 84//24 86//26 103//26 102//24
f 85//25 87//27 117//27 116//25
f 86//26 88//28 104//28 103//26
f 87//27 89//29 118//29 117//27
f 88//28 90//30 105//30 104//28
f 89//29 91//31 119//31 118//29
f 90//30 92//32 106//32 105//30
f 91//31 93//33 120//33 119//31
f 92//32 94//2 107//2 106//32
f 93//33 95//4 121//4 120//33
f 24//34 25//35 36//4 64//33
f 10//36 11//37 34//2 63//32
f 23//38 24//34 64//33 62//31
f 9//39 10//36 63//32 61//30
f 22//40 23//38 62//31 60//29
f 8//41 9//39 61//30 59//28
f 21//42 22//40 60//29 58//27
f 7//43 8//41 59//28 57//26
f 20//44 21//42 58//27 56//25
f 6//45 7//43 57//26 55//24
f 19//46 20//44 56//25 54//23
f 32//47 1//48 43//11 53//22
f 5//49 6//45 55//24 52//21
f 18//50 19//46 54//23 51//20
f 31//51 32//47 53//22 50//19
f 4//52 5//49 52//21 49//18
f 17//53 18//50 51//20 48//17
f 30//54 31//51 50//19 47//16
f 3//55 4//52 49//18 46//15
f 16//56 17//53 48//17 45//14
f 29//57 30//54 47//16 44//13
f 2//58 3//55 46//15 42//12
f 15//59 16//56 45//14 41//10
f 28//60 29//57 44//13 40//9
f 1//48 2//58 42//12 43//11
f 14//61 15//59 41//10 39//8
f 27//62 28//60 40//9 38//7
f 13//63 14//61 39//8 37//6
f 26//64 27//62 38//7 35//5
f 12//65 13//63 37//6 33//3
f 25//35 26//64 35//5 36//4
f 11//37 12//65 33//3 34//2
f 64//33 36//4 95//4 93//33
f 63//32 34//2 94//2 92//32
f 62//31 64//33 93//33 91//31
f 61//30 63//32 92//32 90//30
f 60//29 62//31 91//31 89//29
f 59//28 61//30 90//30 88//28
f 58//27 60//29 89//29 87//27
f 57//26 59//28 88//28 86//26
f 56//25 58//27 87//27 85//25
f 55//24 57//26 86//26 84//24
f 54//23 56//25 85//25 83//23
f 53//22 43//11 96//11 82//22
f 52//21 55//24 84//24 81//21
f 51//20 54//23 83//23 80//20
f 50//19 53//22 82//22 79//19
f 49//18 52//21 81//21 78//18
f 48//17 51//20 80//20 77//17
f 47//16 50//19 79//19 76//16
f 46//15 49//18 78//18 75//15
f 45//14 48//17 77//17 74//14
f 44//13 47//16 76//16 73//13
f 42//12 46//15 75//15 72//12
f 41//10 45//14 74//14 71//10
f 40//9 44//13 73//13 70//9
f 43//11 42//12 72//12 96//11
f 39//8 41//10 71//10 69//8
f 38//7 40//9 70//9 68//7
f 37//6 39//8 69//8 67//6
f 35//5 38//7 68//7 66//5
f 33//3 37//6 67//6 65//3
f 36//4 35//5 66//5 95//4
f 34//2 33//3 65//3 94//2
