# Blender v2.78 (sub 0) OBJ File: 'arrow.blend'
# www.blender.org
mtllib arrow_tip.mtl
o arrow_tip_Circle.001
v 0.000000 0.300000 -0.153745
v 0.029994 0.300000 -0.150791
v 0.058836 0.300000 -0.142042
v 0.085416 0.300000 -0.127834
v 0.108714 0.300000 -0.108714
v 0.127834 0.300000 -0.085416
v 0.142042 0.300000 -0.058836
v 0.150791 0.300000 -0.029994
v 0.153745 0.300000 -0.000000
v 0.150791 0.300000 0.029994
v 0.142042 0.300000 0.058836
v 0.127834 0.300000 0.085416
v 0.108714 0.300000 0.108714
v 0.085416 0.300000 0.127834
v 0.058836 0.300000 0.142042
v 0.029994 0.300000 0.150791
v 0.000000 0.300000 0.153745
v -0.029994 0.300000 0.150791
v -0.058836 0.300000 0.142042
v -0.085416 0.300000 0.127834
v -0.108714 0.300000 0.108714
v -0.127834 0.300000 0.085416
v -0.142042 0.300000 0.058835
v -0.150791 0.300000 0.029994
v -0.153745 0.300000 -0.000000
v -0.150791 0.300000 -0.029994
v -0.142042 0.300000 -0.058836
v -0.127834 0.300000 -0.085416
v -0.108714 0.300000 -0.108714
v -0.085416 0.300000 -0.127834
v -0.058835 0.300000 -0.142042
v -0.029994 0.300000 -0.150791
v 0.000000 0.300000 -0.283262
v 0.055262 0.300000 -0.277819
v 0.108400 0.300000 -0.261700
v 0.157372 0.300000 -0.235524
v 0.200297 0.300000 -0.200297
v 0.235524 0.300000 -0.157372
v 0.261700 0.300000 -0.108400
v 0.277819 0.300000 -0.055262
v 0.283262 0.300000 -0.000000
v 0.277819 0.300000 0.055262
v 0.261700 0.300000 0.108400
v 0.235524 0.300000 0.157372
v 0.200297 0.300000 0.200297
v 0.157372 0.300000 0.235524
v 0.108400 0.300000 0.261700
v 0.055262 0.300000 0.277819
v -0.000000 0.300000 0.283262
v -0.055262 0.300000 0.277819
v -0.108400 0.300000 0.261700
v -0.157372 0.300000 0.235524
v -0.200297 0.300000 0.200296
v -0.235524 0.300000 0.157372
v -0.261700 0.300000 0.108400
v -0.277819 0.300000 0.055261
v -0.283262 0.300000 -0.000000
v -0.277819 0.300000 -0.055262
v -0.261700 0.300000 -0.108400
v -0.235524 0.300000 -0.157372
v -0.200296 0.300000 -0.200297
v -0.157372 0.300000 -0.235524
v -0.108399 0.300000 -0.261700
v -0.055261 0.300000 -0.277819
v 0.000000 0.000000 -0.000000
v 0.000000 0.000000 -0.000000
v 0.000000 0.000000 -0.000000
v 0.000000 0.000000 -0.000000
v 0.000000 0.000000 -0.000000
v 0.000000 0.000000 -0.000000
v 0.000000 0.000000 -0.000000
v 0.000000 0.000000 -0.000000
v 0.000000 0.000000 -0.000000
v 0.000000 0.000000 -0.000000
v 0.000000 0.000000 -0.000000
v 0.000000 0.000000 -0.000000
v 0.000000 0.000000 -0.000000
v 0.000000 0.000000 -0.000000
v 0.000000 0.000000 -0.000000
v 0.000000 0.000000 -0.000000
v 0.000000 0.000000 -0.000000
v 0.000000 0.000000 -0.000000
v 0.000000 0.000000 -0.000000
v 0.000000 0.000000 -0.000000
v 0.000000 0.000000 -0.000000
v 0.000000 0.000000 -0.000000
v 0.000000 0.000000 -0.000000
v 0.000000 0.000000 -0.000000
v 0.000000 0.000000 -0.000000
v 0.000000 0.000000 -0.000000
v 0.000000 0.000000 -0.000000
v 0.000000 0.000000 -0.000000
v 0.000000 0.000000 -0.000000
v 0.000000 0.000000 -0.000000
v 0.000000 0.000000 -0.000000
v 0.000000 0.000000 -0.000000
v 0.274602 0.296526 0.054622
v 0.279982 0.296526 -0.000000
v -0.274602 0.296526 0.054622
v -0.258670 0.296526 0.107144
v 0.258670 0.296526 0.107144
v -0.279982 0.296526 -0.000000
v 0.232797 0.296526 0.155550
v -0.274602 0.296526 -0.054622
v 0.197977 0.296526 0.197977
v -0.258669 0.296526 -0.107145
v 0.155550 0.296526 0.232797
v -0.232796 0.296526 -0.155550
v 0.107144 0.296526 0.258670
v 0.054622 0.296526 -0.274602
v 0.000000 0.296526 -0.279982
v -0.197977 0.296526 -0.197977
v 0.054622 0.296526 0.274602
v 0.107145 0.296526 -0.258670
v -0.155549 0.296526 -0.232797
v -0.000000 0.296526 0.279982
v 0.155550 0.296526 -0.232797
v -0.107144 0.296526 -0.258670
v -0.054622 0.296526 0.274602
v 0.197977 0.296526 -0.197977
v -0.054621 0.296526 -0.274602
v -0.107145 0.296526 0.258670
v 0.232797 0.296526 -0.155550
v -0.155550 0.296526 0.232796
v 0.258670 0.296526 -0.107144
v -0.197977 0.296526 0.197977
v 0.274602 0.296526 -0.054622
v -0.232797 0.296526 0.155550
v 0.247499 0.300000 -0.102518
v 0.222744 0.300000 -0.148832
v -0.189428 0.300000 0.189428
v -0.148833 0.300000 0.222744
v 0.262744 0.300000 -0.052263
v -0.222744 0.300000 0.148832
v 0.267891 0.300000 -0.000000
v -0.247499 0.300000 0.102517
v 0.262744 0.300000 0.052263
v -0.262744 0.300000 0.052263
v 0.247499 0.300000 0.102518
v -0.267891 0.300000 -0.000000
v 0.222744 0.300000 0.148832
v -0.262744 0.300000 -0.052263
v 0.189428 0.300000 0.189428
v -0.247499 0.300000 -0.102518
v 0.148832 0.300000 0.222744
v -0.222743 0.300000 -0.148833
v 0.102518 0.300000 0.247499
v 0.052263 0.300000 -0.262744
v 0.000000 0.300000 -0.267891
v -0.189428 0.300000 -0.189428
v 0.052263 0.300000 0.262744
v 0.102518 0.300000 -0.247499
v -0.148832 0.300000 -0.222744
v -0.000000 0.300000 0.267891
v 0.148833 0.300000 -0.222744
v -0.102517 0.300000 -0.247500
v -0.052263 0.300000 0.262744
v 0.189428 0.300000 -0.189428
v -0.052263 0.300000 -0.262744
v -0.102518 0.300000 0.247499
v 0.132177 0.300000 -0.088318
v -0.088318 0.300000 0.132177
v 0.000000 0.300000 -0.158968
v 0.146867 0.300000 -0.060834
v -0.112407 0.300000 0.112407
v 0.155913 0.300000 -0.031013
v -0.132177 0.300000 0.088318
v 0.158968 0.300000 -0.000000
v -0.146867 0.300000 0.060834
v 0.155913 0.300000 0.031013
v -0.155913 0.300000 0.031013
v 0.146867 0.300000 0.060834
v -0.158968 0.300000 -0.000000
v 0.132177 0.300000 0.088318
v -0.155913 0.300000 -0.031013
v 0.112407 0.300000 0.112407
v -0.146867 0.300000 -0.060835
v 0.088318 0.300000 0.132177
v -0.132177 0.300000 -0.088318
v 0.060834 0.300000 0.146867
v 0.031013 0.300000 -0.155913
v -0.112407 0.300000 -0.112407
v 0.031013 0.300000 0.155913
v 0.060834 0.300000 -0.146867
v -0.088318 0.300000 -0.132177
v 0.000000 0.300000 0.158968
v 0.088318 0.300000 -0.132177
v -0.060834 0.300000 -0.146867
v -0.031013 0.300000 0.155913
v 0.112407 0.300000 -0.112407
v -0.031013 0.300000 -0.155913
v -0.060834 0.300000 0.146867
v 0.004521 0.004881 0.000899
v -0.004521 0.004881 0.000899
v 0.004259 0.004881 0.001764
v -0.004609 0.004881 -0.000000
v 0.003833 0.004881 0.002561
v -0.004521 0.004881 -0.000899
v 0.003259 0.004881 0.003259
v -0.004258 0.004881 -0.001764
v 0.002561 0.004881 0.003832
v -0.003832 0.004881 -0.002561
v 0.001764 0.004881 0.004258
v 0.000899 0.004881 -0.004521
v -0.003259 0.004881 -0.003259
v 0.000899 0.004881 0.004521
v 0.001764 0.004881 -0.004259
v -0.002561 0.004881 -0.003833
v 0.000000 0.004881 0.004609
v 0.002561 0.004881 -0.003833
v -0.001764 0.004881 -0.004259
v -0.000899 0.004881 0.004521
v 0.003259 0.004881 -0.003259
v -0.000899 0.004881 -0.004521
v -0.001764 0.004881 0.004258
v 0.003833 0.004881 -0.002561
v -0.002561 0.004881 0.003832
v 0.004259 0.004881 -0.001764
v -0.003259 0.004881 0.003259
v 0.004521 0.004881 -0.000899
v -0.003832 0.004881 0.002561
v 0.004609 0.004881 -0.000000
v -0.004258 0.004881 0.001764
v 0.000000 0.004881 -0.004609
vn 0.0000 1.0000 0.0000
vn 0.7271 -0.6865 0.0000
vn 0.7131 -0.6865 0.1418
vn 0.7131 -0.6865 0.1419
vn 0.1418 -0.6865 -0.7131
vn 0.3553 -0.8932 -0.2754
vn 0.5029 -0.8547 -0.1285
vn 0.5993 -0.8003 -0.0150
vn 0.6474 -0.7422 0.1732
vn 0.6717 -0.6865 -0.2781
vn 0.7131 -0.6865 -0.1417
vn 0.6717 -0.6865 0.2783
vn 0.4886 -0.5509 0.6765
vn 0.3868 -0.5165 0.7639
vn 0.2964 -0.5037 0.8114
vn 0.2015 -0.5066 0.8383
vn 0.1418 -0.6865 0.7131
vn 0.0000 -0.6865 0.7271
vn -0.1418 -0.6865 0.7131
vn -0.1994 -0.4815 0.8534
vn -0.2964 -0.5037 0.8114
vn -0.3868 -0.5165 0.7639
vn -0.4886 -0.5509 0.6765
vn -0.6717 -0.6865 0.2783
vn -0.7131 -0.6865 0.1419
vn -0.7271 -0.6865 0.0000
vn -0.7131 -0.6865 -0.1417
vn -0.6717 -0.6865 -0.2781
vn -0.6474 -0.7422 0.1732
vn -0.5993 -0.8003 -0.0150
vn -0.5029 -0.8547 -0.1285
vn -0.3776 -0.9117 -0.1614
vn -0.1418 -0.6865 -0.7131
vn 0.0000 -0.6865 -0.7271
vn -0.6717 -0.6865 0.2782
vn -0.7131 -0.6865 0.1418
vn 0.6717 -0.6865 0.2782
vn 0.6045 -0.6865 0.4039
vn -0.7131 -0.6865 -0.1419
vn 0.5141 -0.6865 0.5141
vn -0.6717 -0.6865 -0.2782
vn 0.4039 -0.6865 0.6045
vn -0.6045 -0.6865 -0.4039
vn 0.2782 -0.6865 0.6717
vn -0.5141 -0.6865 -0.5141
vn 0.2782 -0.6865 -0.6717
vn -0.4039 -0.6865 -0.6045
vn 0.4039 -0.6865 -0.6045
vn -0.2782 -0.6865 -0.6717
vn 0.5141 -0.6865 -0.5141
vn -0.2782 -0.6865 0.6717
vn 0.6045 -0.6865 -0.4039
vn -0.4039 -0.6865 0.6045
vn 0.6717 -0.6865 -0.2782
vn -0.5141 -0.6865 0.5141
vn 0.7131 -0.6865 -0.1418
vn -0.6045 -0.6865 0.4039
vn -0.7703 0.3765 0.5147
vn -0.8559 0.3764 0.3545
vn 0.9086 0.3764 -0.1807
vn 0.9264 0.3764 0.0000
vn 0.7131 -0.6865 -0.1419
vn -0.6551 0.3765 0.6551
vn 0.8559 0.3764 -0.3545
vn -0.5147 0.3765 0.7703
vn 0.7703 0.3765 -0.5147
vn -0.3545 0.3765 0.8559
vn -0.1807 0.3764 -0.9086
vn 0.0000 0.3764 -0.9264
vn -0.1419 -0.6865 -0.7131
vn 0.6551 0.3765 -0.6551
vn -0.1807 0.3764 0.9086
vn -0.1419 -0.6865 0.7131
vn -0.3545 0.3764 -0.8559
vn 0.5147 0.3765 -0.7703
vn 0.0000 0.3764 0.9264
vn -0.5147 0.3765 -0.7703
vn 0.3545 0.3764 -0.8559
vn 0.1807 0.3765 0.9086
vn -0.6551 0.3765 -0.6551
vn 0.1807 0.3764 -0.9086
vn 0.1419 -0.6865 -0.7131
vn 0.3545 0.3765 0.8559
vn -0.7703 0.3764 -0.5147
vn 0.5147 0.3764 0.7703
vn -0.8559 0.3764 -0.3545
vn 0.6551 0.3764 0.6551
vn -0.9086 0.3764 -0.1807
vn 0.7703 0.3765 0.5147
vn -0.9264 0.3764 0.0000
vn 0.8559 0.3764 0.3545
vn -0.9086 0.3764 0.1807
vn 0.9086 0.3764 0.1807
usemtl None
s off
f 130//1 129//1 39//1 38//1
f 132//1 131//1 53//1 52//1
f 129//1 133//1 40//1 39//1
f 131//1 134//1 54//1 53//1
f 133//1 135//1 41//1 40//1
f 134//1 136//1 55//1 54//1
f 135//1 137//1 42//1 41//1
f 136//1 138//1 56//1 55//1
f 137//1 139//1 43//1 42//1
f 138//1 140//1 57//1 56//1
f 139//1 141//1 44//1 43//1
f 140//1 142//1 58//1 57//1
f 141//1 143//1 45//1 44//1
f 142//1 144//1 59//1 58//1
f 143//1 145//1 46//1 45//1
f 144//1 146//1 60//1 59//1
f 145//1 147//1 47//1 46//1
f 149//1 148//1 34//1 33//1
f 146//1 150//1 61//1 60//1
f 147//1 151//1 48//1 47//1
f 148//1 152//1 35//1 34//1
f 150//1 153//1 62//1 61//1
f 151//1 154//1 49//1 48//1
f 152//1 155//1 36//1 35//1
f 153//1 156//1 63//1 62//1
f 154//1 157//1 50//1 49//1
f 155//1 158//1 37//1 36//1
f 156//1 159//1 64//1 63//1
f 157//1 160//1 51//1 50//1
f 158//1 130//1 38//1 37//1
f 159//1 149//1 33//1 64//1
f 160//1 132//1 52//1 51//1
f 192//1 162//1 132//1 160//1
f 191//1 163//1 149//1 159//1
f 190//1 161//1 130//1 158//1
f 189//1 192//1 160//1 157//1
f 188//1 191//1 159//1 156//1
f 187//1 190//1 158//1 155//1
f 186//1 189//1 157//1 154//1
f 185//1 188//1 156//1 153//1
f 184//1 187//1 155//1 152//1
f 183//1 186//1 154//1 151//1
f 182//1 185//1 153//1 150//1
f 181//1 184//1 152//1 148//1
f 180//1 183//1 151//1 147//1
f 179//1 182//1 150//1 146//1
f 163//1 181//1 148//1 149//1
f 178//1 180//1 147//1 145//1
f 177//1 179//1 146//1 144//1
f 176//1 178//1 145//1 143//1
f 175//1 177//1 144//1 142//1
f 174//1 176//1 143//1 141//1
f 173//1 175//1 142//1 140//1
f 172//1 174//1 141//1 139//1
f 171//1 173//1 140//1 138//1
f 170//1 172//1 139//1 137//1
f 169//1 171//1 138//1 136//1
f 168//1 170//1 137//1 135//1
f 167//1 169//1 136//1 134//1
f 166//1 168//1 135//1 133//1
f 165//1 167//1 134//1 131//1
f 164//1 166//1 133//1 129//1
f 162//1 165//1 131//1 132//1
f 161//1 164//1 129//1 130//1
s 1
f 222//2 193//3 74//4 73//2
f 66//5 67//6 68//7 69//8 70//9 71//10 72//11 73//2 74//4 75//12 76//13 77//14 78//15 79//16 80//17 81//18 82//19 83//20 84//21 85//22 86//23 87//24 88//25 89//26 90//27 91//28 92//29 93//30 94//31 95//32 96//33 65//34
f 223//35 194//36 88//25 87//24
f 193//3 195//37 75//12 74//4
f 194//36 196//26 89//26 88//25
f 195//37 197//38 76//13 75//12
f 196//26 198//39 90//27 89//26
f 197//38 199//40 77//14 76//13
f 198//39 200//41 91//28 90//27
f 199//40 201//42 78//15 77//14
f 200//41 202//43 92//29 91//28
f 201//42 203//44 79//16 78//15
f 224//34 204//5 66//5 65//34
f 202//43 205//45 93//30 92//29
f 203//44 206//17 80//17 79//16
f 204//5 207//46 67//6 66//5
f 205//45 208//47 94//31 93//30
f 206//17 209//18 81//18 80//17
f 207//46 210//48 68//7 67//6
f 208//47 211//49 95//32 94//31
f 209//18 212//19 82//19 81//18
f 210//48 213//50 69//8 68//7
f 211//49 214//33 96//33 95//32
f 212//19 215//51 83//20 82//19
f 213//50 216//52 70//9 69//8
f 214//33 224//34 65//34 96//33
f 215//51 217//53 84//21 83//20
f 216//52 218//54 71//10 70//9
f 217//53 219//55 85//22 84//21
f 218//54 220//56 72//11 71//10
f 219//55 221//57 86//23 85//22
f 220//56 222//2 73//2 72//11
f 221//57 223//35 87//24 86//23
f 54//58 55//59 100//35 128//57
f 40//60 41//61 98//2 127//62
f 53//63 54//58 128//57 126//55
f 39//64 40//60 127//62 125//54
f 52//65 53//63 126//55 124//53
f 38//66 39//64 125//54 123//52
f 51//67 52//65 124//53 122//51
f 64//68 33//69 111//34 121//70
f 37//71 38//66 123//52 120//50
f 50//72 51//67 122//51 119//73
f 63//74 64//68 121//70 118//49
f 36//75 37//71 120//50 117//48
f 49//76 50//72 119//73 116//18
f 62//77 63//74 118//49 115//47
f 35//78 36//75 117//48 114//46
f 48//79 49//76 116//18 113//17
f 61//80 62//77 115//47 112//45
f 34//81 35//78 114//46 110//82
f 47//83 48//79 113//17 109//44
f 60//84 61//80 112//45 108//43
f 33//69 34//81 110//82 111//34
f 46//85 47//83 109//44 107//42
f 59//86 60//84 108//43 106//41
f 45//87 46//85 107//42 105//40
f 58//88 59//86 106//41 104//39
f 44//89 45//87 105//40 103//38
f 57//90 58//88 104//39 102//26
f 43//91 44//89 103//38 101//37
f 56//92 57//90 102//26 99//36
f 42//93 43//91 101//37 97//4
f 55//59 56//92 99//36 100//35
f 41//61 42//93 97//4 98//2
f 6//1 7//1 164//1 161//1
f 20//1 21//1 165//1 162//1
f 7//1 8//1 166//1 164//1
f 21//1 22//1 167//1 165//1
f 8//1 9//1 168//1 166//1
f 22//1 23//1 169//1 167//1
f 9//1 10//1 170//1 168//1
f 23//1 24//1 171//1 169//1
f 10//1 11//1 172//1 170//1
f 24//1 25//1 173//1 171//1
f 11//1 12//1 174//1 172//1
f 25//1 26//1 175//1 173//1
f 12//1 13//1 176//1 174//1
f 26//1 27//1 177//1 175//1
f 13//1 14//1 178//1 176//1
f 27//1 28//1 179//1 177//1
f 14//1 15//1 180//1 178//1
f 1//1 2//1 181//1 163//1
f 28//1 29//1 182//1 179//1
f 15//1 16//1 183//1 180//1
f 2//1 3//1 184//1 181//1
f 29//1 30//1 185//1 182//1
f 16//1 17//1 186//1 183//1
f 3//1 4//1 187//1 184//1
f 30//1 31//1 188//1 185//1
f 17//1 18//1 189//1 186//1
f 4//1 5//1 190//1 187//1
f 31//1 32//1 191//1 188//1
f 18//1 19//1 192//1 189//1
f 5//1 6//1 161//1 190//1
f 32//1 1//1 163//1 191//1
f 19//1 20//1 162//1 192//1
f 128//57 100//35 223//35 221//57
f 127//62 98//2 222//2 220//56
f 126//55 128//57 221//57 219//55
f 125//54 127//62 220//56 218//54
f 124//53 126//55 219//55 217//53
f 123//52 125//54 218//54 216//52
f 122//51 124//53 217//53 215//51
f 121//70 111//34 224//34 214//33
f 120//50 123//52 216//52 213//50
f 119//73 122//51 215//51 212//19
f 118//49 121//70 214//33 211//49
f 117//48 120//50 213//50 210//48
f 116//18 119//73 212//19 209//18
f 115//47 118//49 211//49 208//47
f 114//46 117//48 210//48 207//46
f 113//17 116//18 209//18 206//17
f 112//45 115//47 208//47 205//45
f 110//82 114//46 207//46 204//5
f 109//44 113//17 206//17 203//44
f 108//43 112//45 205//45 202//43
f 111//34 110//82 204//5 224//34
f 107//42 109//44 203//44 201//42
f 106//41 108//43 202//43 200//41
f 105//40 107//42 201//42 199//40
f 104//39 106//41 200//41 198//39
f 103//38 105//40 199//40 197//38
f 102//26 104//39 198//39 196//26
f 101//37 103//38 197//38 195//37
f 99//36 102//26 196//26 194//36
f 97//4 101//37 195//37 193//3
f 100//35 99//36 194//36 223//35
f 98//2 97//4 193//3 222//2
